<svg xmlns="http://www.w3.org/2000/svg" width="93.333" height="129.333" viewBox="0 0 2469.44 3421.94" shape-rendering="geometricPrecision" text-rendering="geometricPrecision" image-rendering="optimizeQuality" fill-rule="evenodd" clip-rule="evenodd"><path d="M1933.22 0h-14.12c-24.69 14.11-38.8 31.75-49.38 56.45-21.17 38.8-35.28 81.14-45.87 119.94-7.05 28.22-24.69 42.33-52.91 45.86-81.14 14.11-141.11 59.97-183.45 130.53-24.69 45.86-45.86 91.72-63.5 137.58-49.39 130.53-88.19 264.59-134.05 395.11-24.7 67.03-28.22 67.03-95.25 67.03-81.13 0-74.07-14.11-74.07 74.09 0 28.22 7.05 42.33 38.79 42.33 10.58 0 24.7-3.53 28.22 7.06 3.53 10.58-7.05 17.63-14.11 24.69-42.32 45.86-95.24 70.56-151.68 84.67-67.03 17.64-134.06 31.75-201.09 52.91-165.8 56.45-321.02 134.06-444.5 268.11-74.08 81.14-123.47 176.39-165.8 275.16-134.06 306.92-197.56 627.95-246.95 952.5-21.16 151.7-38.8 303.39-52.91 458.61C7.06 3270.24 0 3344.33 0 3421.94h1174.75c3.53-17.64-3.52-31.75-7.05-45.86-24.7-63.5-74.09-95.25-134.06-109.37-24.69-7.05-28.22-14.11-14.11-31.75 24.7-31.75 42.34-70.55 56.45-109.36 56.44-169.33 81.13-345.72 109.36-522.11 21.16-134.05 52.91-261.05 119.93-381 52.92-88.19 116.42-162.27 197.56-225.78 28.22-21.16 31.75-21.16 35.27 14.12 3.53 24.69 3.53 49.39 7.06 77.61 10.58 165.8 10.58 335.14-7.06 500.94-10.58 130.53-17.63 261.06-7.05 388.06 14.11 151.69 42.33 296.33 77.61 444.5h469.19c-10.58-77.61-74.08-141.11-148.16-155.23-45.86-7.05-88.2-3.52-134.06 7.06-21.16 3.53-28.22 0-31.75-21.17-14.11-186.97-3.53-373.94 35.28-557.39 45.86-211.66 84.67-426.86 109.36-642.05 10.58-88.2 35.28-169.33 81.14-246.95 42.33-74.08 77.61-151.68 119.94-229.29 31.75-59.97 38.81-119.95 14.12-183.45-10.59-24.69-17.64-49.38-31.75-74.08-35.28-70.55-70.56-137.58-102.31-208.14-17.64-35.28-14.11-38.8 24.69-38.8 56.45 0 56.45 0 59.98-56.45v-24.69c0-24.7-10.59-38.81-35.28-35.28h-52.92c-24.69 0-31.75-10.58-24.69-35.28 21.16-81.14 98.78-144.64 179.91-155.22 77.62-10.58 155.23 0 232.84 14.11 21.16 3.53 35.28 0 45.86-21.17 14.11-35.27 28.22-70.55 45.86-105.83 7.06-14.11 7.06-28.22-3.53-38.8-112.89-148.17-236.36-282.23-402.16-366.89-17.64-10.59-28.23-21.17-31.75-38.81-10.59-49.39-24.7-98.78-45.86-148.16-10.59-24.7-21.17-45.87-49.39-59.98z" fill-rule="nonzero"/></svg>