<svg xmlns="http://www.w3.org/2000/svg" width="26.667" height="26.667" viewBox="0 0 705.56 705.56" shape-rendering="geometricPrecision" text-rendering="geometricPrecision" image-rendering="optimizeQuality" fill-rule="evenodd" clip-rule="evenodd"><path d="M631.47 331.62H331.62v42.32h299.85l-74.08 74.09 31.75 31.75L698.5 370.41c7.05-7.04 7.05-21.15 0-31.74L589.14 229.31l-31.75 31.75 74.08 70.56zM285.76 684.39V465.67c0-10.59-10.58-21.17-21.17-21.17H109.37c0 24.69 21.17 42.33 42.33 42.33h88.2v176.39H109.37c-35.28 3.53-63.5-24.69-67.03-59.97V109.37c0-35.28 28.22-63.5 59.97-63.5H239.9v176.39h-84.67c-24.69 0-42.33 21.17-42.33 42.33h155.22c10.58 0 21.17-10.58 21.17-21.16V21.18C285.76 10.59 275.18.01 264.59.01H109.37C52.92-3.52 3.54 42.34.01 102.31v490.36c-3.53 59.97 42.33 109.36 102.3 109.36h162.28c10.59 3.52 21.17-7.06 21.17-17.64z" fill-rule="nonzero"/></svg>