<svg xmlns="http://www.w3.org/2000/svg" width="178.667" height="74.667" viewBox="0 0 4727.22 1975.56" shape-rendering="geometricPrecision" text-rendering="geometricPrecision" image-rendering="optimizeQuality" fill-rule="evenodd" clip-rule="evenodd"><path d="M4342.69 204.62c42.33-67.03 95.25-119.94 158.75-162.28 35.28-24.69 56.44-24.69 77.61 21.17 28.22 67.03 52.92 137.58 31.75 211.67-7.05 28.22-3.53 49.38 14.11 74.08 21.17 28.22 38.81 56.44 56.45 81.14 45.86 67.02 63.5 137.58 31.75 218.72-14.12 35.28-14.12 70.55-7.06 109.36 7.06 35.28 7.06 70.56 0 105.83-10.58 56.45-38.81 95.25-95.25 112.89-45.86 10.59-84.67 31.74-112.89 70.55-7.05 10.58-17.64 17.64-31.75 17.64-42.33 7.05-148.16-88.19-148.16-130.52V913.7c3.52-127-3.53-137.58-119.95-190.5-24.69-10.58-45.86-21.16-63.5-42.33-21.17-28.22-49.39-24.7-81.14-14.11-28.22 14.11-49.39 31.75-45.86 67.03 10.58 84.66 14.11 169.33 10.58 257.52 0 10.59 3.53 21.16 7.06 28.22 109.36 158.75 151.69 345.72 204.61 525.63 42.33 137.59 119.94 211.67 261.06 222.25 21.16 0 45.86 7.06 67.02 10.59 63.5 10.58 102.31 52.91 119.95 112.89 24.69 74.08 10.58 91.72-63.5 91.72h-229.31c-31.75 0-56.44-7.06-81.14-28.22-35.27-35.28-77.61-49.39-119.94-70.56-45.86-21.17-91.72-45.86-119.95-91.72-38.8-59.97-91.72-109.36-141.11-158.75-98.77-102.31-204.61-201.08-296.33-306.92-67.03-77.61-112.89-162.28-112.89-268.11 0-31.75-7.05-45.86-42.33-31.75-10.59 7.06-24.7 10.58-35.28 10.58-98.78 0-148.17 59.98-183.44 148.17-31.75 74.08-74.09 144.64-112.89 218.72-17.64 38.81-35.28 91.73-35.28 148.17 0 84.67 21.17 112.89 98.78 141.11 49.39 17.64 95.25 35.28 119.94 84.67 28.22 56.44 21.17 70.55-38.8 74.08h-239.89c-31.75 0-52.92-10.58-67.03-38.8-21.17-35.28-42.33-70.56-63.5-105.84-35.28-59.97-49.39-119.94-24.69-190.5 21.16-59.97 10.58-127 3.52-186.97-14.11-91.72 0-172.86 59.97-246.94 21.17-24.7 21.17-35.28-14.11-42.34-144.64-28.22-282.22-81.13-416.27-144.63 0 0-3.53 0-3.53-3.52-112.89-42.34-134.06-35.28-165.8 81.13-28.22 98.77-56.44 197.55-77.61 299.86-24.69 112.88 3.53 218.72 38.81 324.55 14.11 42.34 56.44 38.81 88.18 49.39 70.56 21.17 130.53 49.39 158.75 123.47 24.7 56.45 21.17 63.5-38.8 63.5-59.98 0-119.95-3.52-183.44 0-56.44 3.53-98.78-17.64-148.16-49.39-169.34-112.89-218.73-285.75-232.84-472.72-7.05-116.42-70.55-208.14-144.64-296.33-14.11-17.63-28.22-24.69-49.39-10.58-74.08 45.86-158.75 74.08-236.36 105.83-169.33 63.5-317.5 162.28-430.39 310.44-42.33 52.92-67.02 112.89-77.61 179.92-10.58 63.5 7.06 91.72 70.56 109.36 67.03 21.17 95.25 52.92 102.3 119.94 3.53 28.23-7.05 42.34-35.27 42.34H871.37c-21.17 0-35.28-14.11-45.86-28.22-45.87-56.45-67.03-123.48-67.03-194.03-3.53-123.47 10.58-243.42 31.75-363.36 14.11-74.09 49.39-134.06 119.94-169.34 208.14-98.77 317.5-285.74 416.28-479.76 21.17-38.81 3.53-45.86-31.75-42.34-102.31 10.59-190.5 56.45-271.64 112.89-105.83 74.09-201.08 162.28-292.8 250.47-102.31 95.24-218.73 162.27-363.37 172.86C109.37 1146.53-10.58 1001.9 0 769.06c3.53-81.14 31.75-155.22 84.67-215.19 42.34-45.86 91.72-70.56 158.75-52.92 52.92 14.11 67.03 42.34 45.86 95.25-10.58 21.17-24.69 38.81-35.28 59.98-14.11 21.16-28.22 45.86-35.27 70.55-38.81 105.83 14.11 179.92 123.47 190.5 116.42 10.58 211.67-38.81 299.86-109.36 105.83-84.67 201.08-183.44 282.22-292.81 130.53-169.33 299.86-257.52 508-285.75 81.14-10.58 151.7-45.86 229.31-67.02 144.64-42.34 292.8-67.03 448.03-63.5 70.55 3.52 137.58-10.59 204.61-38.81 172.85-70.56 352.76-70.56 532.68-35.28 141.11 28.22 282.22 63.5 419.81 98.78 77.61 17.64 165.8 10.58 246.94-7.06 155.22-35.27 313.97-67.02 472.72-70.55 105.84-3.53 208.14 14.11 303.39 59.97 70.56 31.75 70.56 31.75 52.92 98.78z" fill-rule="nonzero"/></svg>