<svg xmlns="http://www.w3.org/2000/svg" width="44.427" height="50.151" viewBox="0 0 1175.46 1326.92" shape-rendering="geometricPrecision" text-rendering="geometricPrecision" image-rendering="optimizeQuality" fill-rule="evenodd" clip-rule="evenodd"><defs><style>.fil1,.fil2{fill-rule:nonzero}.fil2{fill:#000}.fil1{fill:#ef6250}</style></defs><g id="__x0023_Layer_x0020_2"><path d="M214.16 731.08l1.88-79.93c235.17-32.06 474.01-48.29 711.36-46.95-.37 21.36-1.03 42.79-2.05 64.23 0 0 103.11-47.58 212.94-63.98-83.51-223.06-298.58-381.87-550.79-381.87-293.63 0-536.96 215.25-580.88 496.56 76.63 4.78 207.54 11.94 207.54 11.94zm746.75 123.61c-40.92 45.31-49.1 42.34-49.1 121.92 0 32.05.97 172.78 1.24 323.58 158.17-105.38 262.41-285.33 262.41-489.64 0-37.11-3.48-73.39-10.05-108.59-63.97 37.53-169.73 114.25-204.5 152.73zm-736.59 52.5s-133.77-50.8-182.88-64.35c-15.08-4.16-28.4-7.99-41.44-9.99 7.96 213.38 129.6 397.68 306.15 494.08l-81.83-419.74z" fill="#fcc205" fill-rule="nonzero" id="_712236736"/><path class="fil1" d="M927.6 604.02c5.12-299.16-49.44-580.94-49.44-580.94s-5.08-45.72-30.48-8.46c-25.4 37.25-42.33 138.85-42.33 138.85-262.47-15.24-450.43 11.85-450.43 11.85-28.79-96.52-77.89-138.85-101.6-128.69-23.71 10.16-25.4 116.84-25.4 116.84l-11.67 497.49c235.17-32.05 474.01-48.28 711.35-46.94z" id="_712238528"/><path class="fil2" d="M437.89 493.83c-1.6-3.21 36.06 24.01 49.61 32.48 13.55 8.47 21.51 14.93 21.51 20.86s-9.31 11.85-22.01 11.85c-12.7 0-32.17-4.23-33.87-9.31 0 0 21.17-.85 33.02-.85h10.16s-49.1-36.4-58.42-55.03z"/><path class="fil2" d="M701.52 497.82s-36.94 44.96-38.31 47.02c-1.38 2.07-5.85 12.04 6.53 10.32 12.38-1.72 39.2-7.91 42.98-9.97 3.79-2.07 2.45-6.91-4.12-6.19-7.22.78-24.07 1.72-34.73 3.78l29.67-44.48s.93-4.18-2.02-.48z" id="_712249280"/><path class="fil2" d="M591.03 712.69s28.58-12.38 38.42-35.56c9.84-23.18 1.27-32.17-15.56-34.5-16.82-2.33-47.3-1.06-61.27 11.96-13.97 13.02-12.07 25.72-1.91 33.65 10.16 7.94 29.85 21.28 40.32 24.45z" id="_712237984"/><path class="fil1" d="M576.75 756.82s-6.34 13.12-16.17 20.96c-8.58 6.83-20 12.83-35.9 13.64-22.51 1.16-37.24-5.97-51.21-15.71-7.16-4.98-13.94-8.98-18.78-15.58-5.54-6.42-12.56-8.91-12.56-8.91s26.37 144.59 90.5 167.45c64.14 22.86 75.62-26.43 77.63-39.97 1.71-11.49 0-73.45-28.93-113.71-.52-10.7-1.08-3.53-4.58-8.17z" id="_712236128"/><path class="fil2" d="M518.86 796.8c-.18 0-.37 0-.55-.01-45.61-.38-80.83-48-82.3-50.03a5.06 5.06 0 0 1 1.11-7.09c2.26-1.66 5.44-1.16 7.1 1.1.33.46 33.73 45.55 74.21 45.86.14.01.28.01.42.01 20.61 0 39.93-11.75 57.42-34.92l5.02-6.66 3.62 7.51c.12.26 13.16 26.66 34.87 28.02 17.51 1.1 37.13-14.51 57-45.09a5.082 5.082 0 0 1 7.03-1.49 5.07 5.07 0 0 1 1.49 7.02c-22.32 34.36-44.62 51.06-66.21 49.69-19.87-1.27-33.23-17.45-39.42-26.95-18.33 21.92-38.75 33.03-60.81 33.03z" id="_712241472"/><path class="fil1" d="M925.56 667.59s-89.73 79.19-178.63 183.13c-88.9 103.95-186.69 172.01-186.69 172.01-7.62-18.57-57.15-53.21-57.15-53.21S392.6 894.03 320.21 834.64c-41.61-34.14-82.77-76.43-110.28-106.25-10.3-.55-37.58-2.01-70.76-3.84C304.7 970.44 561.51 1035.1 561.51 1035.1c30.48-4.95 115.57-65.58 179.07-115.08s167.64-159.63 209.54-207.89c21.2-24.41 33.29-50.08 40.07-69.5-39.13 13.49-64.63 24.96-64.63 24.96z" id="_712243168"/></g></svg>