<svg xmlns="http://www.w3.org/2000/svg" width="134.001" height="24.114" viewBox="0 0 3545.44 638.02" shape-rendering="geometricPrecision" text-rendering="geometricPrecision" image-rendering="optimizeQuality" fill-rule="evenodd" clip-rule="evenodd"><path d="M43.17 584.78C14.4 549.32 0 498.12 0 431.22V207.57c0-68.42 14.27-120.1 42.8-155.11C71.31 17.52 120.05-.01 189.03-.01c65.84 0 112.52 15.59 140.01 46.74 27.47 31.14 41.23 75.3 41.23 132.49v53.62H234.14v-62.03c0-24-2.6-42.38-7.78-55.14-5.2-12.76-17.63-19.16-37.33-19.16-19.71 0-32.67 6.77-38.9 20.31-6.22 13.51-9.34 32.3-9.34 56.3v291.81c0 24.49 3.23 43.27 9.73 56.3 6.48 13.02 19.31 19.53 38.51 19.53 19.17 0 31.49-6.51 36.95-19.53 5.44-13.03 8.16-31.81 8.16-56.3v-65.11h136.13v53.62c0 58.19-13.76 103.51-41.23 135.95-27.49 32.44-74.17 48.63-140.01 48.63-68.45 0-117.06-17.75-145.86-53.24zM536.11 8.44h158.61l117.52 620.39h-128.4l-21.01-130.97h-92.49L548.5 628.83H417.08L536.11 8.44zm113.5 407.45L616.2 173.86l-33.46 242.03h66.87zm258.83-305.58h-94.92V8.44h329.04v101.87h-94.12v518.52h-140zM1394.59 8.44h244.25v64.33h-156.36v205.27h126.77v61.28h-126.77v227.49h157.91v62.02h-245.8zm315.97 0h59.89l178.91 412.07V8.44h73.12v620.39h-56l-181.26-423.56v423.56h-74.66zm399.47 0h244.25v64.33h-156.36v205.27h126.77v61.28h-126.77v227.49h157.91v62.02h-245.8zm315.96 0h126.77c63.79 0 110.6 12.87 140.42 38.66 29.81 25.78 44.74 67.79 44.74 126.02 0 79.66-25.96 127.88-77.81 144.73l89.44 310.98h-84.75l-82.45-291.07h-68.47v291.07h-87.89V8.44zm121.33 267.3c37.87 0 64.96-7.41 81.28-22.22 16.36-14.81 24.52-41.59 24.52-80.4 0-25.53-2.87-45.58-8.57-60.13-5.71-14.55-15.8-25.3-30.31-32.18-14.55-6.89-35.03-10.35-61.48-10.35h-38.88v205.28h33.44zm303.54 307.51c-25.43-35.49-38.13-88.18-38.13-158.17V217.54c0-47.99 5.06-87.43 15.19-118.35 10.09-30.88 27.47-54.62 52.11-71.22 24.6-16.59 58.45-24.89 101.49-24.89 58.08 0 99.94 14.55 125.64 43.65 25.65 29.09 38.5 74.82 38.5 137.1v22.96h-82.45v-19.12c0-29.62-1.85-52.47-5.44-68.58-3.66-16.07-11.3-28.2-22.97-36.35-11.68-8.18-28.91-12.28-51.73-12.28-24.37 0-42.51 5.51-54.45 16.49-11.94 10.97-19.57 25.63-22.94 44.01-3.36 18.38-5.06 42.9-5.06 73.56v229.75c0 47.52 5.86 81.6 17.5 102.25 11.67 20.69 34.12 31.03 67.29 31.03 32.69 0 55.09-11.24 67.3-33.71 12.17-22.44 18.29-58.45 18.29-107.97v-42.9h-80.15v-61.28h159.46v307.14h-55.21l-8.57-71.21c-19.73 52.57-57.06 78.87-112 78.87-57.06 0-98.28-17.74-123.67-53.24zm475.19-173.46L3189.95 8.44h81.69l96.43 299.48 94.92-299.48h82.45l-135.35 401.35v219.04h-84.04z" fill="#111" fill-rule="nonzero"/></svg>