<svg xmlns="http://www.w3.org/2000/svg" width="269.321" height="79.307" viewBox="0 0 7125.78 2098.34" shape-rendering="geometricPrecision" text-rendering="geometricPrecision" image-rendering="optimizeQuality" fill-rule="evenodd" clip-rule="evenodd"><defs><style>.fil3{fill:#000;fill-rule:nonzero}.fil4{fill:#111}.fil0,.fil1,.fil4{fill-rule:nonzero}.fil1{fill:#ef6250}.fil0{fill:#fcc205}</style></defs><g id="__x0023_Layer_x0020_1"><path class="fil0" d="M2112.58 846.49c-192.33-460.36-721.44-677.65-1181.8-485.32-460.36 192.33-677.64 721.44-485.31 1181.79 126.51 302.83 398.76 500.47 701.3 545.53-20.44-73.74-41-155.24-59.68-241.85 52.89 35 108.96 63.69 168.25 90.15-.24.12-.47.24-.71.36 0 0 4.18 76.07 9.84 161.06a896.888 896.888 0 0 0 188.64-16.87c-1.49-5.56-1.52-14.29.42-26.89 10.1-65.68 38.54-184.71 44.03-261.31 39.83-37.53 75.42-82.04 102.32-130.98-.05.42-.1.87-.15 1.28-.61 5.08-1.25 10.18-1.92 15.29-19.55 150.45-60.12 310.93-84.78 355.32-8.57 15.43-19.26 30.28-29.28 40.68 48.27-11.29 96.26-26.71 143.52-46.45 460.36-192.33 677.64-721.44 485.31-1181.79zm-52.14 133.55c-15.3 15.3-47.6 25.5-52.7-20.4-5.1-45.9-6.8-78.2-6.8-78.2s-68-120.7-93.5-122.4c-25.5-1.7-205.71 122.4-253.31 175.1-41.08 45.49-49.3 42.5-49.3 122.4 0 60.43 7.78 288.1 3.48 462.4 0 0-76.58 20.4-287.38 76.5-210.81 56.1-275.41 62.9-275.41 62.9l-35.7-205.7s-.03-.01-.08-.02c-.18-.03-.66-.11-1.41-.23-.02 0-.05-.01-.07-.01-.36-.05-.76-.11-1.23-.18-.51-.07-1.08-.14-1.73-.22l-90.68-465.14s-134.3-51-183.6-64.6c-49.3-13.6-79.9-23.8-142.81 22.1-62.9 45.9-61.2 136-61.2 136s15.3 34 17 51.01c1.7 17-42.5 15.3-71.4 15.3-28.9 0-32.3-51.01-10.2-110.51 22.1-59.5 68-130.9 68-130.9s42.5-79.9 73.1-102c0 0 5.1-11.9 44.21-8.5 39.1 3.4 256.7 15.3 256.7 15.3l1.88-80.25c236.1-32.18 475.89-48.48 714.18-47.13-.37 21.44-1.03 42.96-2.05 64.48 0 0 154.7-71.4 287.31-69.7 0 0 15.3-1.7 27.2 13.6 11.9 15.3 85 105.4 93.5 119 8.5 13.6 42.5 61.2 64.6 107.1 0 0-15.3 47.6-30.6 62.9z"/><path class="fil1" d="M1991.62 764.59c16.72 21.1 31.3 39.82 34.82 45.45 8.5 13.6 42.5 61.2 64.6 107.1 0 0-15.3 47.6-30.6 62.9-15.3 15.3-47.6 25.5-52.7-20.4-5.1-45.9-6.8-78.2-6.8-78.2s-68-120.7-93.5-122.4c-25.5-1.7-205.71 122.4-253.31 175.1-41.08 45.49-49.3 42.5-49.3 122.4 0 53 5.98 234.58 4.55 396.03 63.83 7.36 157.57 25.03 185.85 66.37 0 0-10.2-253.29 275.41-120.7 0 0 10.2-345.1 404.6-256.69 0 0-199.95-245.49-483.62-376.96z" id="_617655136"/><path class="fil1" d="M1620.48 682.66c5.14-300.34-49.65-583.23-49.65-583.23s-5.1-45.9-30.6-8.5-42.5 139.4-42.5 139.4c-263.51-15.3-452.21 11.9-452.21 11.9-28.9-96.9-78.2-139.4-102-129.2-23.8 10.2-25.5 117.3-25.5 117.3L906.3 729.79c236.1-32.18 475.89-48.48 714.18-47.13z" id="_617667584"/><path d="M1599.88 1662.16c4.46-37.56 7.06-87.68 8.43-143.22 0 0-76.58 20.4-287.38 76.5-210.81 56.1-275.41 62.9-275.41 62.9l39.1 176.81c.82 3.84 1.65 7.67 2.47 11.49 52.89 35 108.96 63.69 168.25 90.15 154.26-76.36 242.39-145.84 242.39-145.84-.05.71-.11 1.46-.17 2.19 39.83-37.53 75.42-82.04 102.32-130.98z" fill="#e55545" fill-rule="nonzero" id="_617669344"/><path class="fil3" d="M1128.82 572.04c-1.61-3.23 36.2 24.11 49.81 32.61 13.6 8.5 21.59 14.99 21.59 20.94 0 5.95-9.35 11.9-22.1 11.9-12.75 0-32.3-4.25-34-9.35 0 0 21.25-.85 33.15-.85h10.2s-49.3-36.55-58.65-55.25z"/><path class="fil3" d="M1393.5 576.05s-37.09 45.13-38.47 47.2c-1.38 2.07-5.87 12.08 6.56 10.36 12.42-1.73 39.35-7.94 43.15-10.01 3.8-2.07 2.46-6.93-4.14-6.22-7.25.79-24.17 1.73-34.87 3.8l29.79-44.65s.93-4.2-2.02-.48z" id="_617640416"/><path class="fil3" d="M1282.57 791.76s28.69-12.43 38.57-35.7c9.88-23.26 1.27-32.3-15.62-34.64-16.89-2.33-47.49-1.06-61.52 12.01-14.03 13.07-12.11 25.82-1.91 33.79 10.2 7.97 29.96 21.36 40.48 24.54z" id="_617655936"/><path class="fil1" d="M1268.23 836.07s-6.36 13.17-16.24 21.04c-8.61 6.86-20.08 12.88-36.04 13.7-22.6 1.15-37.38-6-51.41-15.77-7.18-5.01-14-9.02-18.86-15.65-5.56-6.44-12.61-8.95-12.61-8.95s26.48 145.17 90.87 168.12c64.39 22.95 75.92-26.54 77.93-40.13 1.72-11.54 0-73.74-29.05-114.16-.51-10.74-1.08-3.55-4.59-8.2z" id="_617669440"/><path class="fil3" d="M1210.11 876.2h-.56c-45.78-.39-81.14-48.2-82.62-50.23-1.66-2.28-1.16-5.47 1.12-7.12a5.08 5.08 0 0 1 7.12 1.11c.33.46 33.87 45.72 74.51 46.04h.42c20.7 0 40.09-11.79 57.65-35.06l5.04-6.68 3.63 7.54c.12.26 13.21 26.76 35.01 28.13 17.58 1.1 37.27-14.56 57.22-45.27 1.53-2.36 4.69-3.03 7.06-1.5a5.102 5.102 0 0 1 1.49 7.06c-22.41 34.49-44.79 51.26-66.47 49.88-19.94-1.28-33.36-17.52-39.57-27.06-18.4 22.02-38.91 33.16-61.05 33.16z" id="_617651040"/><path class="fil0" d="M1156.96 1269.75c-28.17-67.41 3.65-144.9 71.07-173.06 67.41-28.17 144.9 3.65 173.06 71.07 28.17 67.42-3.65 144.89-71.07 173.06-67.41 28.16-144.9-3.66-173.06-71.07z"/><path class="fil4" d="M1454.61 1111.39l-110.53 46.18 40.55-198.82-264.62 344.38 110.54-46.17-40.56 198.81 264.62-344.38zm-260.63 134.87l145.74-190.8-28.46 141.8 69.38-28.99-145.74 190.79 28.46-141.79-69.38 28.99z" id="_617661984"/><path class="fil4" d="M1107.74 1170.37c-8.44-20.2 1.09-43.41 21.29-51.85 20.2-8.44 43.41 1.09 51.85 21.29 8.43 20.2-1.1 43.41-21.3 51.85-20.19 8.43-43.4-1.1-51.84-21.29zm240.77 150.46c-5.96-14.28.78-30.69 15.06-36.66 14.28-5.97 30.69.77 36.66 15.05 5.97 14.28-.77 30.7-15.05 36.66-14.29 5.97-30.7-.77-36.67-15.05zm48.54-67.32c-2.61-6.25.34-13.43 6.59-16.04 6.25-2.61 13.43.34 16.04 6.59 2.61 6.25-.34 13.43-6.59 16.04-6.25 2.61-13.43-.34-16.04-6.59z"/><path class="fil1" d="M1618.43 746.48s-90.1 79.51-179.35 183.86c-89.25 104.36-187.43 172.68-187.43 172.68-7.65-18.63-57.38-53.42-57.38-53.42s-110.92-75.78-183.6-135.41c-41.77-34.27-83.09-76.73-110.71-106.66-10.34-.56-37.73-2.03-71.05-3.86 166.19 246.86 424.01 311.78 424.01 311.78 30.61-4.97 116.03-65.85 179.78-115.54 63.75-49.69 168.31-160.26 210.38-208.71 21.29-24.51 33.43-50.28 40.24-69.78-39.29 13.55-64.89 25.06-64.89 25.06z" id="_617638912"/><path class="fil0" d="M2300.75 123.42l-298.26 333.16-43.01-70.47L2246.95 0zM2210 608.83l195.79-145.05-27.82-131.72-190.56 169.79zm-96.01 1132.7l216.2 112.37 106.2-82.75-236.15-96.83zM68.92 210.8l108.1-118.57 327.89 317.46-43.24 80.32zm191.5 363.64L94.54 464.06 9.71 600.25l181.86 84.71zm230.2 1279.46l-160.43 118.14 98.97 126.29 141.78-141.94z"/><path class="fil1" d="M914.62 986.84s-134.3-51-183.6-64.6c-49.3-13.6-79.9-23.8-142.81 22.1-62.9 45.9-61.2 136-61.2 136s15.3 34 17 51.01c1.7 17-42.5 15.3-71.4 15.3-28.9 0-32.3-51.01-10.2-110.51 22.1-59.5 68-130.9 68-130.9C338.31 1005.54 0 1236.75 0 1236.75s103.71-10.2 289.01 8.5 175.1 164.89 175.1 164.89 124.1-34 198.91-39.1c74.8-5.1 79.9 74.8 79.9 74.8l18.7 136s17-22.1 93.5-83.3c65.67-52.54 137.07-48.04 154.7-45.9l-95.2-465.8z" id="_617651072"/><g id="_617490896"><path class="fil4" d="M3021.79 1482.88c-32.87-42.3-49.32-103.32-49.32-183.09v-264.81c0-81.58 16.31-143.23 48.86-184.93 32.58-41.71 88.44-62.56 167.59-62.56 75.49 0 128.89 18.42 160.27 55.24 31.35 36.84 47.03 89.67 47.03 158.47v62.07h-146.11v-68.48c0-21.91-1.09-39.56-3.21-52.98-2.14-13.38-7.6-24.48-16.44-33.32-8.81-8.81-22.37-13.25-40.62-13.25-27.4 0-45.08 8.84-52.98 26.49-7.92 17.68-11.87 43.54-11.87 77.63v336.04c0 34.73 4.58 60.58 13.7 77.63 9.13 17.05 26.18 25.57 51.15 25.57 25.57 0 41.99-8.66 49.31-26.03 7.3-17.36 10.96-43.05 10.96-77.17v-72.13h146.11v61.17c0 70.63-15.53 125.29-46.57 163.94-31.06 38.67-84.64 57.98-160.73 57.98-78.54 0-134.24-21.14-167.13-63.48zm573.52-686.26h167.1l142.48 739.7h-138.82l-27.4-162.56h-116.88l-28.31 162.56h-141.57l143.4-739.7zm128.75 484l-44.74-297.7-43.82 297.7h88.56zm287.66-372.59h-114.15V796.62h378.05v111.41h-112.33v628.29h-151.57z"/><path d="M4572.42 796.62h286.74v76.71h-183.59v244.74h148.86v73.06h-148.86v271.22h185.42v73.97h-288.57zm371.69 0h70.31l210.01 491.3v-491.3h85.87v739.7h-65.79l-212.76-505v505h-87.64zm482.16 0H5713v76.71h-183.59v244.74h148.86v73.06h-148.86v271.22h185.42v73.97h-288.56zm371.68 0h148.86c74.89 0 129.81 15.39 164.82 46.11 35.01 30.75 52.52 80.83 52.52 150.23 0 94.96-30.44 152.52-91.37 172.6l105.04 370.76h-99.54l-96.8-347.02h-80.38v347.02h-103.15v-739.7zm142.45 318.71c44.45 0 76.26-8.81 95.43-26.49 19.16-17.65 28.77-49.6 28.77-95.88 0-30.44-3.37-54.32-10.07-71.69-6.69-17.36-18.59-30.14-35.58-38.35-17.05-8.21-41.13-12.33-72.14-12.33h-45.71v244.74h39.3zm362.54 366.64c-29.81-42.31-44.74-105.15-44.74-188.56v-247.48c0-57.21 5.95-104.26 17.79-141.1 11.9-36.82 32.27-65.14 61.21-84.93 28.89-19.77 68.65-29.66 119.17-29.66 68.19 0 117.34 17.33 147.48 52.03 30.15 34.72 45.2 89.22 45.2 163.47v27.41h-96.8v-22.83c0-35.3-2.11-62.56-6.35-81.75-4.29-19.17-13.27-33.61-26.94-43.37-13.73-9.72-33.99-14.61-60.76-14.61-28.6 0-49.94 6.55-63.9 19.65-14.02 13.07-23 30.58-26.95 52.49-4 21.91-5.95 51.14-5.95 87.67v273.96c0 56.61 6.87 97.26 20.54 121.92 13.73 24.65 40.05 36.98 79.01 36.98 38.33 0 64.7-13.39 79-40.19 14.3-26.77 21.46-69.71 21.46-128.75v-51.13h-94.06v-73.06h187.19v366.19h-64.82l-10.06-84.93c-23.12 62.7-67 94.05-131.53 94.05-66.93 0-115.33-21.14-145.19-63.47zm565.28-206.84l-159.79-478.51h95.88l113.22 357.07 111.44-357.07h96.8l-158.93 478.51v261.19h-98.62z" fill="#444" fill-rule="nonzero"/></g></g></svg>