<svg xmlns="http://www.w3.org/2000/svg" width="229.686" height="76.093" viewBox="0 0 6077.1 2013.3" shape-rendering="geometricPrecision" text-rendering="geometricPrecision" image-rendering="optimizeQuality" fill-rule="evenodd" clip-rule="evenodd"><defs><style>.fil3{fill:#000}.fil1,.fil3,.fil4{fill-rule:nonzero}.fil4{fill:#111}.fil1{fill:#ef6250}</style></defs><g id="__x0023_Layer_x0020_2"><path d="M2103.42 766.89c-191.5-458.37-718.31-674.71-1176.68-483.21-458.36 191.49-674.7 718.31-483.21 1176.67 125.97 301.51 397.04 498.29 698.27 543.16-20.36-73.42-40.83-154.56-59.43-240.8 52.66 34.85 108.49 63.42 167.53 89.76-.25.12-.48.24-.72.36 0 0 4.16 75.74 9.8 160.36 62.3 1.03 125.22-4.44 187.82-16.8-1.48-5.54-1.51-14.22.42-26.77 10.06-65.39 38.38-183.91 43.85-260.18 39.65-37.37 75.09-81.68 101.87-130.41l-.15 1.28c-.61 5.06-1.25 10.13-1.91 15.22-19.47 149.79-59.86 309.58-84.42 353.78-8.53 15.36-19.17 30.14-29.15 40.5 48.06-11.24 95.84-26.59 142.9-46.25 458.36-191.5 674.7-718.31 483.21-1176.67zm-51.92 132.97c-15.24 15.24-47.4 25.39-52.47-20.31-5.08-45.7-6.77-77.86-6.77-77.86s-67.71-120.18-93.1-121.87c-25.39-1.7-204.81 121.87-252.21 174.34-40.9 45.29-49.08 42.32-49.08 121.87 0 60.17 7.74 286.85 3.46 460.41 0 0-76.25 20.31-286.14 76.16-209.88 55.86-274.21 62.63-274.21 62.63l-35.54-204.81s-.03-.01-.09-.02c-.17-.03-.65-.11-1.39-.23 0 0-.06 0-.08-.01-.35-.05-.75-.11-1.22-.17-.51-.07-1.08-.15-1.72-.23h-.01l-90.28-463.13s-133.72-50.78-182.81-64.32c-49.08-13.54-79.55-23.69-142.18 22.01-62.63 45.7-60.93 135.41-60.93 135.41s15.23 33.85 16.92 50.78c1.69 16.93-42.31 15.23-71.09 15.23-28.77 0-32.16-50.78-10.16-110.02 22.01-59.24 67.71-130.33 67.71-130.33s42.32-79.56 72.78-101.56c0 0 5.08-11.85 44.01-8.47 38.93 3.39 255.59 15.24 255.59 15.24l1.88-79.9c235.07-32.05 473.82-48.27 711.08-46.93-.37 21.34-1.03 42.77-2.04 64.2 0 0 154.03-71.09 286.06-69.4 0 0 15.23-1.69 27.08 13.54 11.85 15.24 84.63 104.95 93.1 118.49 8.46 13.54 42.31 60.93 64.32 106.63 0 0-15.24 47.4-30.47 62.63z" fill="#fcc205" fill-rule="nonzero"/><path class="fil1" d="M1982.98 685.34c16.65 21.01 31.16 39.65 34.67 45.26 8.46 13.54 42.31 60.93 64.32 106.63 0 0-15.24 47.4-30.47 62.63-15.24 15.24-47.4 25.39-52.47-20.31-5.08-45.7-6.77-77.86-6.77-77.86s-67.71-120.18-93.1-121.87c-25.39-1.7-204.81 121.87-252.21 174.34-40.9 45.29-49.08 42.32-49.08 121.87 0 52.76 5.95 233.57 4.53 394.32 63.55 7.33 156.88 24.92 185.04 66.09 0 0-10.15-252.21 274.21-120.18 0 0 10.16-343.61 402.86-255.6 0 0-199.09-244.42-481.53-375.32z" id="_725775664"/><path class="fil1" d="M1613.45 603.77c5.12-299.04-49.44-580.7-49.44-580.7s-5.07-45.7-30.46-8.47c-25.39 37.24-42.32 138.8-42.32 138.8-262.36-15.23-450.25 11.85-450.25 11.85-28.77-96.48-77.86-138.8-101.55-128.64-23.7 10.16-25.39 116.79-25.39 116.79l-11.67 497.3c235.07-32.05 473.82-48.27 711.08-46.93z" id="_725774096"/><path d="M1592.94 1579.03c4.44-37.4 7.03-87.29 8.39-142.59 0 0-76.25 20.31-286.14 76.16-209.88 55.86-274.21 62.63-274.21 62.63l38.94 176.04c.81 3.83 1.63 7.63 2.45 11.44 52.66 34.85 108.49 63.42 167.53 89.76 153.58-76.03 241.33-145.21 241.33-145.21-.05.71-.11 1.46-.16 2.18 39.65-37.37 75.09-81.68 101.87-130.41z" fill="#e55545" fill-rule="nonzero" id="_725780720"/><path class="fil3" d="M1123.92 493.63c-1.6-3.22 36.05 24 49.59 32.46 13.54 8.47 21.51 14.93 21.51 20.85 0 5.93-9.31 11.85-22.01 11.85-12.69 0-32.16-4.23-33.85-9.31 0 0 21.16-.84 33.01-.84h10.15s-49.09-36.4-58.4-55.01z"/><path class="fil3" d="M1387.45 497.62s-36.93 44.94-38.3 47c-1.38 2.06-5.84 12.03 6.53 10.31 12.37-1.72 39.18-7.9 42.96-9.97 3.78-2.06 2.45-6.9-4.12-6.18-7.21.78-24.06 1.71-34.72 3.78l29.66-44.46s.93-4.18-2.01-.48z" id="_725781232"/><path class="fil3" d="M1277 712.4s28.57-12.38 38.41-35.54c9.83-23.17 1.27-32.17-15.56-34.49-16.82-2.33-47.28-1.06-61.25 11.95-13.96 13.01-12.06 25.71-1.9 33.64 10.15 7.94 29.83 21.27 40.3 24.44z" id="_725786672"/><path class="fil1" d="M1262.72 756.52s-6.33 13.11-16.16 20.94c-8.58 6.83-20 12.83-35.89 13.64-22.5 1.15-37.22-5.97-51.18-15.7-7.16-4.99-13.94-8.98-18.78-15.58-5.54-6.42-12.55-8.91-12.55-8.91s26.36 144.54 90.47 167.39c64.11 22.85 75.59-26.42 77.59-39.95 1.71-11.49 0-73.42-28.92-113.67-.51-10.7-1.08-3.53-4.58-8.16z" id="_725787312"/><path class="fil3" d="M1204.86 796.47h-.56c-45.58-.39-80.79-47.99-82.26-50.01a5.092 5.092 0 0 1 1.11-7.1 5.08 5.08 0 0 1 7.09 1.11c.34.46 33.73 45.53 74.19 45.84.14 0 .28.01.42.01 20.6 0 39.91-11.75 57.4-34.91l5.02-6.65 3.61 7.51c.12.26 13.15 26.64 34.86 28 17.5 1.1 37.11-14.5 56.97-45.07a5.082 5.082 0 0 1 7.03-1.49 5.07 5.07 0 0 1 1.49 7.02c-22.31 34.34-44.6 51.04-66.19 49.67-19.85-1.27-33.21-17.45-39.39-26.94-18.32 21.91-38.74 33.01-60.79 33.01z" id="_725774704"/><path class="fil4" d="M1448.3 1030.64l-110.06 45.98 40.39-197.96-263.48 342.9 110.06-45.98-40.39 197.96 263.48-342.9zm-259.5 134.28l145.11-189.97-28.34 141.19 69.08-28.86-145.11 189.97 28.34-141.19-69.08 28.86z" id="_725786160"/><path class="fil1" d="M1611.41 667.31s-89.71 79.17-178.58 183.07c-88.86 103.9-186.61 171.93-186.61 171.93-7.62-18.55-57.13-53.19-57.13-53.19s-110.44-75.45-182.8-134.82c-41.6-34.13-82.74-76.4-110.23-106.2-10.3-.55-37.58-2.02-70.74-3.84 165.46 245.79 422.17 310.42 422.17 310.42 30.47-4.95 115.52-65.56 179-115.03 63.47-49.48 167.57-159.57 209.46-207.81 21.2-24.4 33.28-50.06 40.06-69.47-39.12 13.48-64.6 24.94-64.6 24.94z" id="_725790128"/><path class="fil1" d="M910.65 906.63s-133.72-50.78-182.81-64.32c-49.08-13.54-79.55-23.69-142.18 22.01-62.63 45.7-60.93 135.41-60.93 135.41s15.23 33.85 16.92 50.78c1.69 16.93-42.31 15.23-71.09 15.23-28.77 0-32.16-50.78-10.16-110.02 22.01-59.24 67.71-130.33 67.71-130.33C336.84 925.25 0 1155.45 0 1155.45s103.25-10.15 287.75 8.47S462.1 1328.1 462.1 1328.1s123.56-33.85 198.04-38.93c74.47-5.08 79.55 74.48 79.55 74.48l18.62 135.41s16.93-22 93.1-82.94c65.39-52.31 136.48-47.83 154.03-45.7l-94.79-463.79z" id="_725776176"/><g id="_725785104"><path class="fil4" d="M3159.42 1309.53c-23.36-30.08-35.06-73.45-35.06-130.17V991.09c0-58 11.6-101.82 34.74-131.47 23.16-29.65 62.88-44.47 119.15-44.47 53.66 0 91.63 13.09 113.94 39.26 22.29 26.2 33.43 63.76 33.43 112.66v44.13h-103.88v-48.68c0-15.58-.77-28.13-2.27-37.66-1.53-9.52-5.41-17.41-11.7-23.69-6.26-6.27-15.9-9.42-28.87-9.42-19.48 0-32.05 6.28-37.67 18.83-5.63 12.57-8.43 30.95-8.43 55.19v238.91c0 24.69 3.25 43.07 9.74 55.19 6.48 12.12 18.6 18.18 36.36 18.18 18.18 0 29.85-6.16 35.06-18.5 5.18-12.35 7.78-30.61 7.78-54.87v-51.29h103.88v43.5c0 50.21-11.04 89.07-33.11 116.55-22.08 27.49-60.17 41.22-114.26 41.22-55.85 0-95.44-15.03-118.83-45.13zm407.74-487.9h118.8l101.29 525.89h-98.69l-19.48-115.57h-83.09l-20.13 115.57h-100.65l101.95-525.89zm91.53 344.11l-31.8-211.66-31.16 211.66h62.96zm204.52-264.9h-81.16v-79.21h268.78v79.21h-79.86v446.68h-107.76z"/><path d="M4261.83 821.63h203.85v54.54h-130.52v174h105.83v51.94h-105.83v192.82h131.82v52.59h-205.15zm264.25 0h49.98l149.31 349.29V821.63h61.05v525.89h-46.77l-151.26-359.03v359.03h-62.31zm342.78 0h203.85v54.54h-130.52v174h105.83v51.94h-105.83v192.82h131.82v52.59h-205.15zm264.25 0h105.82c53.24 0 92.29 10.94 117.18 32.78 24.89 21.86 37.34 57.47 37.34 106.81 0 67.51-21.64 108.43-64.96 122.7l74.68 263.6h-70.77l-68.82-246.72h-57.14v246.72h-73.33V821.63zm101.27 226.59c31.6 0 54.21-6.27 67.84-18.84 13.62-12.54 20.46-35.26 20.46-68.16 0-21.64-2.4-38.62-7.16-50.96-4.76-12.35-13.22-21.44-25.3-27.27-12.12-5.84-29.24-8.77-51.29-8.77h-32.49v174h27.94zm257.74 260.66c-21.19-30.08-31.81-74.75-31.81-134.05V998.88c0-40.67 4.23-74.12 12.65-100.32 8.46-26.17 22.94-46.3 43.52-60.37 20.54-14.06 48.8-21.09 84.72-21.09 48.48 0 83.42 12.32 104.85 36.99 21.43 24.69 32.13 63.43 32.13 116.22v19.48h-68.82v-16.23c0-25.09-1.5-44.47-4.51-58.12-3.05-13.62-9.44-23.89-19.16-30.83-9.76-6.91-24.16-10.39-43.19-10.39-20.34 0-35.51 4.66-45.43 13.97-9.97 9.3-16.35 21.74-19.16 37.32-2.84 15.58-4.23 36.36-4.23 62.33v194.78c0 40.24 4.88 69.14 14.6 86.67 9.76 17.53 28.47 26.29 56.17 26.29 27.25 0 46-9.52 56.17-28.57 10.17-19.04 15.25-49.56 15.25-91.53v-36.36h-66.86v-51.94h133.07v260.34H5696l-7.15-60.38c-16.44 44.58-47.63 66.87-93.51 66.87-47.59 0-81.99-15.03-103.22-45.13zm401.87-147.05l-113.59-340.2h68.16l80.49 253.86 79.23-253.86h68.82l-112.99 340.2v185.69h-70.12z" fill="#444" fill-rule="nonzero"/></g></g></svg>